#!OML:ASF F:\VICON\USERDATA\INSTALL\Justin_Nancy\Justin_Nancy.ASF
:FULLY-SPECIFIED
:DEGREES
319
root 0.472031 17.253 19.3864 0.449633 -0.159143 4.30705
lowerback 6.76962 -0.881822 -4.73541
upperback 1.14844 -1.47049 1.57222
thorax -2.44643 -0.692125 4.42168
lowerneck -18.2997 -2.67845 -9.73417
upperneck 20.5442 -2.2645 5.6601
head 9.71488 -1.17182 3.29084
rclavicle 7.25564e-015 -2.38542e-015
rhumerus -35.1158 -15.5505 -78.0742
rradius 27.6735
rwrist 9.55929
rhand -13.1857 11.3192
rfingers 7.12502
rthumb 12.9142 -18.2612
lclavicle 7.25564e-015 -2.38542e-015
lhumerus -22.2739 3.68981 83.6898
lradius 33.1696
lwrist -7.13736
lhand -15.7345 25.8234
lfingers 7.12502
lthumb 10.4563 415.543
rfemur -29.4773 0.296381 15.2068
rtibia 24.439
rfoot -3.84821 -13.0316
rtoes -8.55142
lfemur 0.885155 -1.94872 -28.5236
ltibia 22.458
lfoot -18.7435 0.544448
ltoes -1.72389
320
root 0.459726 17.2478 19.5374 0.503403 -0.0242801 4.21502
lowerback 6.75174 -0.924402 -4.69347
upperback 1.184 -1.52168 1.61363
thorax -2.39386 -0.720159 4.44421
lowerneck -18.3708 -2.73366 -9.67969
upperneck 20.4321 -2.32709 5.57748
head 9.69245 -1.20324 3.24158
rclavicle -1.85864e-014 7.95139e-015
rhumerus -35.1349 -15.6376 -78.015
rradius 27.6417
rwrist 9.39095
rhand -13.1561 11.3884
rfingers 7.12502
rthumb 12.9427 -18.1902
lclavicle -1.85864e-014 7.95139e-015
lhumerus -22.2629 3.65723 83.6702
lradius 33.6873
lwrist -7.85436
lhand -14.958 26.6462
lfingers 7.12502
lthumb 11.2052 416.327
rfemur -28.9203 0.774952 15.0622
rtibia 21.5062
rfoot -3.80235 -12.7771
rtoes -9.76563
lfemur 1.71397 -2.00046 -28.3784
ltibia 21.8285
lfoot -18.6098 0.437495
ltoes -1.84283
321
root 0.441982 17.2413 19.6869 0.56307 0.0612487 4.18089
lowerback 6.7094 -0.936663 -4.76444
upperback 1.15226 -1.54085 1.64165
thorax -2.39827 -0.728342 4.51465
lowerneck -17.7089 -2.76082 -9.67942
upperneck 19.8264 -2.40454 5.51953
head 9.3646 -1.24458 3.20025
rclavicle -7.65321e-015 1.27222e-014
rhumerus -35.2578 -15.664 -77.9461
rradius 27.6174
rwrist 9.19732
rhand -13.0345 11.3466
rfingers 7.12502
rthumb 13.06 -18.2246
lclavicle -7.65321e-015 1.27222e-014
lhumerus -22.325 3.70174 83.6464
lradius 34.1156
lwrist -8.72212
lhand -14.8576 26.6244
lfingers 7.12502
lthumb 11.3021 416.3
rfemur -28.3326 1.46609 14.8134
rtibia 18.6834
rfoot -3.71938 -12.7192
rtoes -11.0181
lfemur 2.52529 -1.91804 -28.2512
ltibia 21.2284
lfoot -18.7211 0.316542
ltoes -2.3911
322
root 0.431345 17.2345 19.829 0.656195 0.261339 4.28759
lowerback 6.74165 -1.04093 -4.88438
upperback 1.12908 -1.69113 1.60314
thorax -2.42099 -0.801274 4.55584
lowerneck -17.4563 -2.73711 -9.48161
upperneck 19.5065 -2.41135 5.37487
head 9.20329 -1.24706 3.11082
rclavicle 3.27995e-015 1.51076e-014
rhumerus -35.3283 -15.7697 -77.9281
rradius 27.5762
rwrist 9.29164
rhand -13.1525 11.0351
rfingers 7.12502
rthumb 12.9462 -18.5433
lclavicle 3.27995e-015 1.51076e-014
lhumerus -22.0917 3.56124 83.594
lradius 34.0432
lwrist -8.60684
lhand -15.9174 25.5129
lfingers 7.12502
lthumb 10.2799 415.242
rfemur -27.7771 1.81895 14.4257
rtibia 16.055
rfoot -3.72947 -12.5858
rtoes -11.3905
lfemur 3.25518 -1.9705 -28.2985
ltibia 20.6667
lfoot -18.7681 0.0789071
ltoes -2.85621
323
root 0.413084 17.2256 19.9665 0.795747 0.348685 4.40129
lowerback 6.73647 -1.12091 -5.15223
upperback 1.12172 -1.81677 1.60241
thorax -2.40284 -0.862307 4.7169
lowerneck -17.4363 -2.71044 -9.37509
upperneck 19.3662 -2.38805 5.31207
head 9.14679 -1.23326 3.0721
rclavicle -1.3418e-014 6.36111e-015
rhumerus -35.415 -15.9041 -77.8709
rradius 27.6169
rwrist 9.51994
rhand -13.1751 10.8812
rfingers 7.12502
rthumb 12.9244 -18.6985
lclavicle -1.3418e-014 6.36111e-015
lhumerus -21.913 3.39325 83.5857
lradius 34.0211
lwrist -7.71049
lhand -15.5916 26.2825
lfingers 7.12502
lthumb 10.5941 415.995
rfemur -27.409 2.55491 14.0035
rtibia 13.7824
rfoot -3.42521 -12.7905
rtoes -12.5769
lfemur 3.87025 -2.0411 -28.349
ltibia 20.1379
lfoot -18.6808 0.026765
ltoes -4.07699
324
root 0.395755 17.2174 20.109 0.760493 0.404518 4.50054
lowerback 6.90903 -1.15176 -5.39736
upperback 1.13838 -1.88316 1.64317
thorax -2.46448 -0.891839 4.90927
lowerneck -17.4117 -2.76372 -9.54347
upperneck 19.2511 -2.44541 5.44437
head 9.11121 -1.25675 3.13693
rclavicle 1.55052e-014 -1.98785e-014
rhumerus -35.362 -15.9542 -77.7327
rradius 27.4589
rwrist 9.5487
rhand -13.1896 11.055
rfingers 7.12502
rthumb 12.9104 -18.5256
lclavicle 1.55052e-014 -1.98785e-014
lhumerus -21.9739 3.16241 83.7201
lradius 34.2541
lwrist -6.69061
lhand -15.5413 26.3879
lfingers 7.12502
lthumb 10.6427 416.098
rfemur -26.7512 2.99801 13.7552
rtibia 11.6729
rfoot -3.31931 -12.7853
rtoes -13.8936
lfemur 4.61171 -2.04803 -28.3665
ltibia 19.772
lfoot -18.7028 -0.208666
ltoes -3.19633
325
root 0.385277 17.2055 20.2602 0.729612 0.609175 4.60565
lowerback 6.93821 -1.20716 -5.50302
upperback 1.20004 -1.96574 1.61947
thorax -2.40365 -0.935758 4.95068
lowerneck -17.4644 -2.80963 -9.43117
upperneck 19.1672 -2.50939 5.3425
head 9.09439 -1.2875 3.07294
rclavicle 1.17283e-014 1.19271e-014
rhumerus -35.2031 -16.434 -77.5283
rradius 27.0229
rwrist 9.98671
rhand -13.2721 11.3234
rfingers 7.12502
rthumb 12.8309 -18.2623
lclavicle 1.17283e-014 1.19271e-014
lhumerus -21.9601 2.89832 83.8451
lradius 34.2865
lwrist -6.0749
lhand -16.9594 24.3196
lfingers 7.12502
lthumb 9.27447 414.096
rfemur -25.9075 2.56378 13.8013
rtibia 9.80103
rfoot -3.93598 -12.0518
rtoes -14.4163
lfemur 5.29157 -2.22912 -28.4416
ltibia 19.5928
lfoot -18.7215 -0.446227
ltoes -1.96653
326
root 0.368154 17.1935 20.4043 0.734059 0.699793 4.31766
lowerback 6.84159 -1.27278 -5.33068
upperback 1.38357 -2.02908 1.73546
thorax -2.15299 -0.981108 4.97191
lowerneck -17.7883 -2.76966 -9.36612
upperneck 19.1896 -2.43595 5.32548
head 9.15356 -1.24641 3.06568
rclavicle 2.8625e-014 -1.03368e-014
rhumerus -34.8635 -16.7803 -77.4562
rradius 26.7922
rwrist 10.3599
rhand -13.2238 11.3571
rfingers 7.12502
rthumb 12.8774 -18.2256
lclavicle 2.8625e-014 -1.03368e-014
lhumerus -21.5336 3.03437 83.8698
lradius 34.0552
lwrist -6.59426
lhand -16.8904 24.0492
lfingers 7.12502
lthumb 9.34105 413.822
rfemur -25.2995 2.31755 14.3833
rtibia 8.5306
rfoot -4.21072 -11.4294
rtoes -14.9763
lfemur 5.86332 -2.68473 -28.1369
ltibia 19.5164
lfoot -18.6373 -0.346089
ltoes -1.71747
327
root 0.350466 17.1855 20.5444 0.806966 0.669258 4.16024
lowerback 6.57109 -1.2586 -5.26558
upperback 1.65424 -1.98651 1.77839
thorax -1.72734 -0.98047 4.96129
lowerneck -18.1072 -2.80364 -9.37408
upperneck 19.0395 -2.46707 5.42355
head 9.16294 -1.24439 3.09439
rclavicle -2.37548e-014 -1.59028e-015
rhumerus -34.4873 -17.1838 -77.49
rradius 26.7897
rwrist 10.6144
rhand -13.1248 11.2763
rfingers 7.12502
rthumb 12.9729 -18.3004
lclavicle -2.37548e-014 -1.59028e-015
lhumerus -20.6728 3.13418 83.8563
lradius 33.7418
lwrist -7.23485
lhand -16.0055 25.4153
lfingers 7.12502
lthumb 10.1949 415.148
rfemur -25.0534 2.1721 14.8196
rtibia 7.9789
rfoot -4.2269 -10.9378
rtoes -15.1085
lfemur 6.31811 -3.04306 -27.9524
ltibia 19.494
lfoot -18.6737 -0.348491
ltoes 0.145087
328
root 0.340321 17.1791 20.6865 0.865064 0.66795 4.20428
lowerback 6.55981 -1.25852 -5.29573
upperback 1.68527 -1.98752 1.76973
thorax -1.68798 -0.982903 4.96836
lowerneck -17.9983 -2.84659 -9.35625
upperneck 18.8096 -2.52724 5.38256
head 9.06808 -1.27375 3.0658
rclavicle 1.02374e-014 -5.56597e-015
rhumerus -34.4646 -17.142 -77.4311
rradius 26.6383
rwrist 10.4945
rhand -13.3034 11.7724
rfingers 7.12502
rthumb 12.8007 -17.8152
lclavicle 1.02374e-014 -5.56597e-015
lhumerus -20.4831 3.07316 83.9113
lradius 33.7415
lwrist -7.27857
lhand -15.9695 25.7506
lfingers 7.12502
lthumb 10.2296 415.482
rfemur -24.9349 1.96206 14.9779
rtibia 7.98572
rfoot -3.96983 -10.5501
rtoes -15.0976
lfemur 6.74026 -3.21021 -28.0115
ltibia 19.5718
lfoot -18.6356 -0.238394
ltoes -0.735643
